<svg xmlns="http://www.w3.org/2000/svg" width="101" height="102" viewBox="0 0 101 102">
    <g fill="none" fill-rule="evenodd">
        <path fill="#E3EDF1" d="M-678-259H760.156L776 493H-678z" opacity=".557"/>
        <g transform="translate(-27.793 .285)">
            <ellipse cx="78.224" cy="51" stroke="#48B7BC" stroke-width="2" rx="49.252" ry="49.543"/>
            <path fill="#48B7BC" fill-rule="nonzero" d="M110.294 49.323c.24-.523 1.882-2.732 3.369-5.022a48.255 48.255 0 0 0 .968-1.548l.025-.043c.05-.082 3.527-5.74-1.426-3.45l-.001.002c-.93.485-2.114 1.207-3.602 2.22-3.247 2.208-9.85 5.44-9.85 5.44s-1.15.63-1.907.15c-3.83-2.424-9.41-6.731-16.766-9.13-.123-.04-.278-.135-.067-.333l3.15-2.236s.247-.217-.07-.321c-1.559-.516-8.053-2.726-13.671-.694l-2.857 1.033c-.332.12-.67.262-1.343.346-15.323.532-25.685 11.948-25.685 16.463 0 3.03 1.61 5.064 7.492 7.891.119-.019 1.017.636 2.99.034.528-.161 4.283-1.597 4.433-1.661.15-.07.246-.104.308-.094.08.013.139.193.139.23-.013 1.079-2.007 1.953-3.139 2.913-.194.092-.246.55.094.698 0 0 3.998 2.175 10.328 2.851.512.055 7.176 4.388 13.895 3.226 3.554-.615 5.245-.826 6.017-1.042.674-.188.352-.405.352-.405l-3.368-2.724c-.228-.256-.044-.454.147-.509 7.48-2.16 13.394-5.565 16.916-8.482.475-.393 1.707.541 2.587.993 2.923 1.498 15.054 6.573 16.053 5.499.086-.09.093-.225.005-.41-1.707-3.64-7.877-6.744-5.516-11.885zm-57.326-.35c-1.08 0-1.954-.904-1.954-2.02 0-1.115.875-2.019 1.954-2.019s1.954.904 1.954 2.02c0 1.115-.875 2.019-1.954 2.019zm8.743 11.49c-.12.109-.23.274-.166.036 0 0 3.046-4.651 3.441-10.663.296-4.506-2.662-10.024-2.662-10.024s.006-.16.11-.034c1.053 1.293 11.42 9.607-.723 20.684z"/>
        </g>
    </g>
</svg>
