<svg xmlns="http://www.w3.org/2000/svg" width="101" height="102" viewBox="0 0 101 102">
    <g fill="none" fill-rule="evenodd">
        <path fill="#E3EDF1" d="M-259-259h1438.156L1195 493H-259z" opacity=".557"/>
        <g transform="translate(-27.793 .285)">
            <ellipse cx="78.224" cy="51" stroke="#48B7BC" stroke-width="2" rx="49.252" ry="49.543"/>
            <path fill="#48B7BC" fill-rule="nonzero" d="M105.723 68.218l-2.1-11.059a1.437 1.437 0 0 0-2.147-.956l-9.687 5.81a1.42 1.42 0 0 0-.626 1.65 1.43 1.43 0 0 0 1.465.992l3.783-.262c-3.612 4.83-9.05 6.813-15.287 7.321V40.08h3.115a3.013 3.013 0 0 0 4.814-2.405 3.013 3.013 0 0 0-4.815-2.405h-3.114v-4.345c1.773-1.173 2.946-3.173 2.946-5.444 0-3.604-2.948-6.537-6.57-6.537-3.622 0-6.57 2.933-6.57 6.537 0 2.27 1.173 4.271 2.946 5.444v4.345h-3.114a3.013 3.013 0 0 0-4.816 2.405 3.013 3.013 0 0 0 4.815 2.405h3.115v31.635c-6.237-.508-11.674-2.49-15.287-7.321l3.784.262a1.43 1.43 0 0 0 1.465-.991 1.42 1.42 0 0 0-.627-1.65l-9.686-5.81a1.437 1.437 0 0 0-2.147.956l-2.1 11.058a1.422 1.422 0 0 0 .819 1.564 1.435 1.435 0 0 0 1.72-.427l2.26-2.9c4.418 7.119 11.365 13.078 19.378 14.625l3.032 3.017c.56.556 1.466.556 2.025 0l3.032-3.017c8.012-1.546 14.96-7.506 19.379-14.625l2.26 2.9a1.435 1.435 0 0 0 1.72.427c.604-.27.943-.917.82-1.564zM77.5 23.752c.957 0 1.736.775 1.736 1.728 0 .952-.779 1.727-1.736 1.727a1.734 1.734 0 0 1-1.736-1.727c0-.953.779-1.728 1.736-1.728z"/>
        </g>
    </g>
</svg>
