<svg xmlns="http://www.w3.org/2000/svg" width="103" height="103" viewBox="0 0 103 103">
    <g fill="none" fill-rule="evenodd">
        <path fill="#E3EDF1" d="M-1096-259H342.156L358 493h-1454z" opacity=".557"/>
        <g transform="translate(-26.793 .285)">
            <ellipse cx="78.224" cy="51" stroke="#48B7BC" stroke-width="3" rx="49.252" ry="49.543"/>
            <path fill="#48B7BC" fill-rule="nonzero" d="M68.502 56.016c-4.714 2.501-9.21 4.878-14.904 6.641V50.914c0-.914.426-1.769 1.136-2.283l4.252-3.076c.363-.262 1.02-.477 1.46-.477h6.826V40.8h7.682v4.278h5.886c.956 0 1.73.823 1.73 1.84v2.542c-5.411 1.966-9.773 4.278-14.068 6.556zm-.418-18.94v2.267h7.243v-2.268c0-1.162-.817-2.104-1.825-2.104H69.91c-1.008 0-1.825.942-1.825 2.104zm-4.567-6.582c.573 0 1.119-.124 1.615-.345.563.816 1.474 1.353 2.51 1.353.337 0 .656-.07.96-.175-.004.058-.016.115-.016.175 0 1.111.86 2.012 1.922 2.012 1.061 0 1.922-.9 1.922-2.012 0-1.111-.86-2.012-1.922-2.012h-.001c.15-.381.235-.797.235-1.234 0-1.793-1.388-3.246-3.1-3.246-.058 0-.11.014-.167.017-.483-1.823-2.063-3.17-3.958-3.17-2.278 0-4.124 1.933-4.124 4.318s1.846 4.319 4.124 4.319zm39.376 39.59a1.874 1.874 0 0 0-.006 2.024l2.346 3.619c.857 1.32-.141 3.075-1.679 2.953l-52.166-4.218c-1.419-.115-2.605-1.142-2.967-2.56-.316-1.239-.617-2.777-.617-4.14 0-2.803 1.094-3.326 3.334-3.876 20.023-4.918 25.53-16.772 58.942-18.712.868-.05 1.566.73 1.45 1.616-.99 7.55-4.488 16.791-8.637 23.294zm-1.491-9.25c0-.481-.417-.871-.933-.871-.515 0-.933.39-.933.871 0 1.346-.961 2.474-2.271 2.85v-6.008c.7-.325 1.187-.994 1.187-1.775 0-1.097-.952-1.987-2.126-1.987-1.175 0-2.127.89-2.127 1.987 0 .786.492 1.458 1.2 1.78v6.003c-1.31-.376-2.272-1.504-2.272-2.85 0-.481-.417-.871-.933-.871-.515 0-.932.39-.932.871 0 2.612 2.274 4.737 5.07 4.737 2.795 0 5.07-2.125 5.07-4.737z"/>
        </g>
    </g>
</svg>
